# xmcd
#
# Track frame offsets:
#	150
#	15317
#	30918
#	48498
#	65387
#
# Disc length: 1062 seconds
# Revision: 0
# Processed by: cddbd v1.5.2PL0 Copyright (c) Steve Scherf et al.
# Submitted via: dBpowerAMP V12.0
#
DISCID=2f042405
DTITLE=Mindful Audacity - Mindful Audacity
DYEAR=2017
DGENRE=Soul
TTITLE0=Five Letter Word (Hello)
TTITLE1=I Don't Love You Anymore
TTITLE2=Now THat You're Gone
TTITLE3=Journey
TTITLE4=Hearts
EXTD=
EXTT0=
EXTT1=
EXTT2=
EXTT3=
EXTT4=
PLAYORDER=
